<svg width="158" height="38" viewBox="0 0 158 38" fill="none" xmlns="http://www.w3.org/2000/svg">
<g opacity="0.7" clip-path="url(#clip0_2_1344)">
<path d="M19.5158 15.5546L15.1454 25.1555H23.9505L19.5158 15.5546ZM27.1963 33.1248H11.964L9.7145 37.7055H0.0738525V36.325L17.427 0.682617H21.6689L39.0864 36.325V37.7055H29.4456L27.1963 33.1248Z" fill="white"/>
<path d="M57.482 0.227539C65.2588 0.290289 73.357 4.05534 75.2209 13.1542H65.5158C63.909 10.0167 61.3704 8.76166 57.482 8.76166C51.2478 8.76166 47.9056 13.3425 47.9056 18.9273C47.9056 24.9514 51.6655 28.9674 57.482 28.9674C61.4668 28.9674 63.9734 27.9634 65.7409 24.512H57.5464V16.4173H75.7992C76.0243 20.0568 76.0243 23.5709 74.7065 27.0849C71.943 34.6778 64.616 37.627 57.5141 37.627C47.7128 37.627 37.783 31.4146 37.7186 18.9273C37.7509 6.50261 47.6807 0.290289 57.482 0.227539Z" fill="white"/>
<path d="M97.8586 0.353027C105.635 0.41578 113.733 4.18081 115.597 13.2797H105.892C104.286 10.1421 101.747 8.88712 97.8586 8.88712C91.6241 8.88712 88.2821 13.4679 88.2821 19.0528C88.2821 25.0768 92.0418 29.093 97.8586 29.093C101.843 29.093 104.35 28.0888 106.117 24.6377H97.8906V16.5427H116.143C116.369 20.1823 116.369 23.6963 115.051 27.2103C112.287 34.8032 104.96 37.7524 97.8586 37.7524C88.057 37.7524 78.1272 31.5402 78.0631 19.0528C78.1272 6.56535 88.057 0.353027 97.8586 0.353027Z" fill="white"/>
<path d="M147.909 18.9194C147.909 5.80448 128.563 5.80448 128.563 18.9194C128.563 32.1598 147.909 32.1598 147.909 18.9194ZM118.44 18.9194C118.44 -6.30646 157.999 -6.30646 157.999 18.9194C157.999 44.2081 118.44 44.2081 118.44 18.9194Z" fill="white"/>
</g>
<defs>
<clipPath id="clip0_2_1344">
<rect width="158" height="38" fill="white"/>
</clipPath>
</defs>
</svg>
