<svg width="199" height="51" viewBox="0 0 199 51" fill="none" xmlns="http://www.w3.org/2000/svg">
<g opacity="0.7" clip-path="url(#clip0_2_1349)">
<path d="M44.4962 0.661581C44.4892 0.481767 44.4128 0.311877 44.2834 0.188256C44.1541 0.0646344 43.982 -0.00290153 43.804 9.56592e-05H14.9529C10.9871 9.56592e-05 7.18379 1.59264 4.37959 4.4274C1.57538 7.26216 0 11.1069 0 15.1159L0 50.2949C0.00282242 50.4892 0.080815 50.6747 0.217273 50.8116C0.353731 50.9486 0.537804 51.026 0.730067 51.0274C0.832799 51.0273 0.934298 51.0048 1.02763 50.9614C1.12096 50.918 1.20393 50.8547 1.27086 50.776C1.29692 50.7551 1.32051 50.7312 1.34116 50.7049C2.73842 48.9234 4.51559 47.4839 6.54007 46.4938C8.56455 45.5037 10.7841 44.9884 13.033 44.9866H27.9156L27.4776 44.9265C27.9102 44.9647 28.3536 44.9866 28.7971 44.9866H29.5488C33.5066 44.9852 37.3025 43.3982 40.1052 40.5732C42.9079 37.7482 44.4888 33.9155 44.5016 29.9146V0.661581H44.4962Z" fill="white"/>
<path d="M64.8948 20.774C64.577 20.8109 64.2574 20.8292 63.9376 20.8286H62.3314L61.9204 20.774H61.6771V27.6075H55.9609V6.37434C58.1783 6.09344 60.4104 5.94921 62.6451 5.94246C64.3597 5.92023 66.0725 6.06117 67.761 6.3634C69.0113 6.5739 70.2101 7.02486 71.2923 7.69184C72.1733 8.25301 72.8814 9.05212 73.3365 9.99884C73.7965 11.0592 74.0199 12.2089 73.9909 13.3664C73.9909 16.4278 72.6191 18.5453 69.8755 19.7189L74.9913 27.6075H68.6208L64.8948 20.774ZM63.7483 16.4388C64.4564 16.4483 65.1639 16.3952 65.8628 16.2802C66.3507 16.2092 66.8185 16.036 67.2364 15.7718C67.5712 15.5506 67.827 15.2268 67.9665 14.8479C68.1198 14.383 68.1912 13.8945 68.1774 13.4047C68.191 12.9157 68.1234 12.4278 67.9773 11.9614C67.8527 11.5837 67.6072 11.2587 67.2797 11.0375C66.875 10.7816 66.4219 10.614 65.9493 10.5455C65.2692 10.4423 64.582 10.3948 63.8943 10.4034C63.5699 10.4034 63.1913 10.4034 62.7479 10.4471C62.3044 10.4909 61.9529 10.5073 61.6663 10.5455V16.2529C61.9319 16.3225 62.2036 16.3665 62.4775 16.3841C62.8236 16.4005 63.2724 16.4278 63.7591 16.4278L63.7483 16.4388Z" fill="white"/>
<path d="M76.9329 6.23218H92.9078V10.6822H82.6328V14.6675H91.9344V19.1339H82.649V23.1793H93.1944V27.6075H76.9329V6.23218Z" fill="white"/>
<path d="M100.706 10.7095H94.7573V6.23218H112.36V10.7095H106.411V27.6075H100.706V10.7095Z" fill="white"/>
<path d="M110.765 27.3341L117.508 6.23218H125.939L132.683 27.3341V27.6239H127.167L125.712 22.8841H117.708L116.27 27.6075H110.754L110.765 27.3341ZM124.425 18.4669L123.225 14.5363L121.937 10.2066H121.483L120.223 14.58L119.023 18.4779L124.425 18.4669Z" fill="white"/>
<path d="M134.484 6.23218H140.194V27.6075H134.484V6.23218Z" fill="white"/>
<path d="M143.969 6.23218H149.685V23.1793H158.538V27.6075H143.969V6.23218Z" fill="white"/>
<path d="M160.799 6.23218H176.768V10.6822H166.493V14.6675H175.757V19.1339H166.515V23.1793H177.055V27.6075H160.799V6.23218Z" fill="white"/>
<path d="M188.914 20.774C188.596 20.8109 188.277 20.8292 187.957 20.8286H186.329L185.929 20.7958H185.686V27.6075H179.969V6.37434C182.187 6.09364 184.419 5.94941 186.654 5.94246C188.368 5.92023 190.081 6.06117 191.77 6.3634C193.02 6.5739 194.219 7.02486 195.301 7.69184C196.182 8.25301 196.89 9.05212 197.345 9.99884C197.808 11.0584 198.031 12.2087 197.999 13.3664C197.999 16.4278 196.628 18.5453 193.884 19.7189L199.011 27.6075H192.629L188.914 20.774ZM187.773 16.4388C188.481 16.448 189.189 16.395 189.888 16.2802C190.374 16.2083 190.839 16.0352 191.256 15.7718C191.592 15.5484 191.846 15.2201 191.98 14.837C192.136 14.3725 192.209 13.8839 192.197 13.3937C192.207 12.9049 192.14 12.4176 191.997 11.9505C191.868 11.5734 191.621 11.2489 191.294 11.0266C190.889 10.7697 190.436 10.6021 189.963 10.5346C189.283 10.4314 188.596 10.3839 187.908 10.3925C187.584 10.3925 187.205 10.3925 186.767 10.4362C186.329 10.4799 185.967 10.4963 185.686 10.5346V16.2529C185.951 16.3222 186.223 16.3661 186.497 16.3841C186.832 16.4005 187.254 16.4278 187.773 16.4278V16.4388Z" fill="white"/>
<path d="M60.2117 39.2299C60.101 39.3687 59.9675 39.4871 59.8169 39.5798C59.6625 39.6802 59.4974 39.7627 59.3248 39.8258C59.1494 39.8904 58.9683 39.938 58.784 39.968C58.6055 40 58.4245 40.0164 58.2432 40.0172C57.9121 40.0207 57.5834 39.9594 57.2752 39.8368C56.9837 39.7146 56.7231 39.5278 56.5127 39.2901C56.2872 39.045 56.1157 38.7543 56.0098 38.4372C55.8851 38.0603 55.8247 37.6647 55.8313 37.2673C55.8279 36.9269 55.8828 36.5884 55.9935 36.2669C56.0939 35.9703 56.252 35.6971 56.4586 35.4633C56.6645 35.2277 56.9193 35.041 57.2049 34.9166C57.5174 34.7812 57.8546 34.7142 58.1945 34.7198C58.4808 34.719 58.7649 34.7708 59.0328 34.8729C59.2856 34.9719 59.5143 35.1248 59.7034 35.3212C59.9008 35.5394 60.0485 35.7988 60.136 36.0811C60.2441 36.3918 60.2972 36.7193 60.2928 37.0487C60.3003 37.1455 60.2855 37.2428 60.2496 37.333C60.2293 37.3589 60.2026 37.3791 60.1723 37.3916C60.142 37.404 60.109 37.4083 60.0765 37.404H56.6966C56.7001 37.6899 56.7457 37.9736 56.8318 38.2459C56.8999 38.4659 57.0102 38.6702 57.1562 38.8473C57.2935 39.0045 57.4659 39.1263 57.6592 39.2026C57.8651 39.2872 58.0859 39.3281 58.3081 39.3229C58.5019 39.3257 58.695 39.2999 58.8814 39.2463C59.0243 39.2009 59.1635 39.1442 59.2978 39.0769C59.3981 39.0258 59.4956 38.9692 59.5898 38.9074C59.6489 38.8603 59.7203 38.8318 59.7953 38.8254C59.8282 38.8249 59.8607 38.8326 59.8899 38.8479C59.9192 38.8632 59.9443 38.8855 59.9629 38.9129L60.2117 39.2299ZM59.487 36.8355C59.4877 36.6497 59.4585 36.4651 59.4005 36.2888C59.3475 36.1231 59.261 35.9704 59.1463 35.8405C59.0339 35.7135 58.8955 35.6128 58.7407 35.5453C58.5695 35.4734 58.3854 35.438 58.2 35.4414C58.0149 35.4321 57.83 35.4607 57.6562 35.5256C57.4824 35.5904 57.3234 35.6901 57.1887 35.8186C56.9241 36.1049 56.7623 36.4725 56.729 36.8628L59.487 36.8355Z" fill="white"/>
<path d="M68.9237 39.9461H68.3072C68.18 39.9553 68.0527 39.9288 67.9394 39.8696C67.8492 39.8168 67.7803 39.7335 67.7448 39.6345L66.7605 38.0436C66.6881 37.92 66.5841 37.8182 66.4595 37.749C66.3349 37.6798 66.1942 37.6456 66.0521 37.65H65.5437V39.9516H64.6839V37.65H64.1755C64.0337 37.648 63.8937 37.6838 63.77 37.7539C63.6473 37.8223 63.5447 37.9223 63.4725 38.0436L62.4883 39.6345C62.4491 39.733 62.3787 39.8157 62.2882 39.8696C62.1749 39.9288 62.0477 39.9553 61.9205 39.9461H61.304L62.6343 37.8304C62.7099 37.6938 62.8109 37.5731 62.9317 37.4751C63.0498 37.3792 63.186 37.3085 63.3319 37.2674C63.2132 37.2329 63.104 37.1712 63.0129 37.0869C62.9137 36.9996 62.8296 36.8961 62.7641 36.7808L61.4446 34.8346H62.1476C62.2297 34.8337 62.3103 34.8565 62.3801 34.9002C62.4492 34.947 62.5051 35.011 62.5424 35.0861L63.6239 36.7261C63.6913 36.8301 63.7821 36.9163 63.8889 36.9776C63.9997 37.0392 64.1249 37.0694 64.2513 37.0651H64.6893V34.8784H65.5492V37.0651H65.9764C66.1028 37.0703 66.2284 37.0418 66.3405 36.9823C66.4525 36.9227 66.5471 36.8344 66.6145 36.7261L67.6961 35.0861C67.7369 35.0118 67.7943 34.9482 67.8637 34.9002C67.9358 34.8571 68.018 34.8344 68.1017 34.8346H68.7993L67.4852 36.7808C67.4179 36.8949 67.3341 36.9981 67.2364 37.0869C67.1453 37.1712 67.0361 37.2329 66.9174 37.2674C67.0633 37.3085 67.1994 37.3792 67.3175 37.4751C67.4383 37.5731 67.5393 37.6938 67.615 37.8304L68.9237 39.9461Z" fill="white"/>
<path d="M74.1802 39.2299C74.0695 39.3687 73.936 39.487 73.7854 39.5798C73.631 39.6801 73.4659 39.7627 73.2933 39.8258C73.1179 39.8904 72.9368 39.938 72.7525 39.9679C72.574 39.9999 72.393 40.0164 72.2117 40.0171C71.8806 40.0206 71.5519 39.9594 71.2437 39.8367C70.9515 39.716 70.6906 39.5289 70.4812 39.2901C70.2557 39.045 70.0842 38.7543 69.9783 38.4372C69.8536 38.0603 69.7932 37.6647 69.7998 37.2673C69.7964 36.9269 69.8513 36.5884 69.962 36.2669C70.0624 35.9703 70.2205 35.697 70.4271 35.4633C70.633 35.2277 70.8878 35.041 71.1734 34.9166C71.7556 34.6701 72.4082 34.6545 73.0013 34.8729C73.2541 34.9719 73.4828 35.1248 73.6719 35.3211C73.8637 35.5408 74.0059 35.8001 74.0883 36.081C74.2008 36.3907 74.2558 36.7188 74.2505 37.0487C74.258 37.1455 74.2432 37.2428 74.2072 37.3329C74.1869 37.3589 74.1603 37.3791 74.13 37.3915C74.0997 37.404 74.0666 37.4083 74.0342 37.404H70.6542C70.6578 37.6898 70.7034 37.9736 70.7894 38.2459C70.8554 38.4668 70.9659 38.6716 71.1139 38.8472C71.2512 39.0045 71.4236 39.1263 71.6168 39.2026C71.8227 39.2872 72.0436 39.3281 72.2658 39.3229C72.4595 39.3257 72.6527 39.2999 72.839 39.2463C72.982 39.2008 73.1212 39.1442 73.2555 39.0768C73.3558 39.0258 73.4533 38.9692 73.5475 38.9074C73.6065 38.8603 73.678 38.8318 73.753 38.8254C73.7859 38.8249 73.8184 38.8326 73.8476 38.8479C73.8769 38.8631 73.9019 38.8854 73.9206 38.9128L74.1802 39.2299ZM73.4609 36.8354C73.4616 36.6497 73.4324 36.465 73.3744 36.2888C73.3214 36.1231 73.2349 35.9704 73.1203 35.8405C73.0067 35.7148 72.8686 35.6142 72.7147 35.5453C72.5434 35.4734 72.3593 35.438 72.1739 35.4414C71.9888 35.4315 71.8036 35.4598 71.6298 35.5246C71.4559 35.5895 71.2969 35.6895 71.1626 35.8186C70.898 36.1048 70.7362 36.4725 70.7029 36.8628L73.4609 36.8354Z" fill="white"/>
<path d="M81.0807 39.2682V41.4549C81.0834 41.4917 81.0786 41.5287 81.0665 41.5635C81.0544 41.5983 81.0353 41.6302 81.0104 41.6572C80.9852 41.6812 80.9554 41.6999 80.9229 41.7121C80.8904 41.7243 80.8558 41.7298 80.8212 41.7283H80.2804V39.9461H76.0297V41.4495C76.029 41.5144 76.0082 41.5775 75.9703 41.6299C75.9479 41.6565 75.9195 41.6774 75.8875 41.6907C75.8556 41.7041 75.8209 41.7094 75.7864 41.7064H75.2456V39.2901H75.4132C75.531 39.2887 75.6479 39.2684 75.7594 39.2299C75.887 39.1833 76.0006 39.1042 76.0892 39.0003C76.2151 38.8595 76.3174 38.6988 76.3921 38.5247C76.5035 38.2657 76.5904 37.9966 76.6517 37.7211C76.7274 37.3931 76.7923 36.9885 76.8518 36.5184C76.9112 36.0482 76.9491 35.4851 76.987 34.8346H80.183V39.2682H81.0807ZM79.2961 39.2682V35.5343H77.6738C77.6413 36.081 77.5926 36.5238 77.5331 36.9284C77.4869 37.2873 77.4201 37.6433 77.3331 37.9944C77.2705 38.2608 77.1836 38.5206 77.0735 38.7707C76.9986 38.9654 76.8986 39.1492 76.776 39.3174L79.2961 39.2682Z" fill="white"/>
<path d="M86.6942 34.8346V39.9461H85.8019V37.5571H83.3737V39.9461H82.4814V34.8346H83.3737V36.8737H85.8019V34.8346H86.6942Z" fill="white"/>
<path d="M92.7022 39.2299C92.5915 39.3687 92.4579 39.487 92.3074 39.5798C92.153 39.6801 91.9879 39.7627 91.8153 39.8258C91.6399 39.8904 91.4588 39.938 91.2745 39.9679C91.0959 39.9999 90.915 40.0164 90.7337 40.0171C90.4025 40.0206 90.0738 39.9594 89.7657 39.8367C89.4742 39.7146 89.2136 39.5278 89.0032 39.2901C88.7776 39.045 88.6062 38.7543 88.5002 38.4372C88.3755 38.0603 88.3152 37.6647 88.3218 37.2673C88.3184 36.9269 88.3733 36.5884 88.484 36.2669C88.5843 35.9703 88.7425 35.697 88.9491 35.4633C89.1549 35.2277 89.4098 35.041 89.6954 34.9166C90.2775 34.6701 90.9302 34.6545 91.5233 34.8729C91.776 34.9719 92.0047 35.1248 92.1938 35.3211C92.3882 35.5259 92.5375 35.77 92.6319 36.0373C92.7444 36.347 92.7994 36.675 92.7941 37.0049C92.8016 37.1018 92.7868 37.1991 92.7508 37.2892C92.7305 37.3152 92.7039 37.3354 92.6736 37.3478C92.6433 37.3603 92.6103 37.3646 92.5778 37.3603H89.1979C89.2014 37.6461 89.247 37.9298 89.333 38.2022C89.399 38.4231 89.5095 38.6278 89.6575 38.8035C89.7948 38.9607 89.9672 39.0825 90.1605 39.1588C90.3663 39.2434 90.5872 39.2844 90.8094 39.2791C91.0031 39.282 91.1963 39.2562 91.3826 39.2026C91.5256 39.1571 91.6648 39.1004 91.7991 39.0331C91.8994 38.982 91.9969 38.9255 92.0911 38.8636C92.1501 38.8165 92.2216 38.788 92.2966 38.7816C92.3295 38.7812 92.362 38.7889 92.3912 38.8041C92.4205 38.8194 92.4455 38.8417 92.4642 38.8691L92.7022 39.2299ZM91.9829 36.8354C91.9836 36.6497 91.9544 36.465 91.8964 36.2888C91.8434 36.1231 91.7569 35.9704 91.6422 35.8405C91.5287 35.7148 91.3906 35.6142 91.2366 35.5453C91.0654 35.4734 90.8813 35.438 90.6958 35.4414C90.5108 35.4315 90.3256 35.4598 90.1517 35.5246C89.9779 35.5895 89.8189 35.6895 89.6846 35.8186C89.42 36.1048 89.2582 36.4725 89.2249 36.8628L91.9829 36.8354Z" fill="white"/>
<path d="M96.2228 34.8346C96.4946 34.8291 96.7659 34.8623 97.0286 34.933C97.2236 34.9824 97.4073 35.0697 97.5694 35.1899C97.7059 35.2892 97.814 35.4231 97.8831 35.578C97.9514 35.7251 97.9865 35.8857 97.9858 36.0482C97.9844 36.1661 97.9699 36.2835 97.9425 36.3981C97.9087 36.5232 97.8538 36.6416 97.7803 36.7479C97.7 36.8674 97.5971 36.9696 97.4775 37.0486C97.3307 37.1465 97.1676 37.2169 96.9962 37.2564C97.3277 37.2952 97.6393 37.4365 97.8885 37.6609C97.9936 37.7665 98.0763 37.8928 98.1311 38.0319C98.186 38.1711 98.212 38.3202 98.2075 38.47C98.2113 38.6945 98.1593 38.9163 98.0561 39.1151C97.9591 39.2985 97.8223 39.4574 97.6559 39.5798C97.472 39.7082 97.2669 39.8026 97.0502 39.8586C96.8098 39.9192 96.5626 39.9486 96.3148 39.946H94.3679V34.8346H96.2228ZM95.2224 35.4414V37.0432H96.1958C96.335 37.0439 96.4735 37.0237 96.6068 36.983C96.7236 36.9442 96.832 36.8829 96.9259 36.8026C97.0162 36.7316 97.0886 36.6397 97.1368 36.5347C97.1871 36.4232 97.213 36.302 97.2125 36.1794C97.2125 36.0861 97.196 35.9935 97.1638 35.9061C97.1284 35.8132 97.0685 35.732 96.9908 35.671C96.8983 35.5942 96.7917 35.5366 96.6771 35.5015C96.5203 35.4585 96.3582 35.4383 96.1958 35.4414H95.2224ZM96.304 39.3173C96.5857 39.3305 96.8638 39.2478 97.0935 39.0823C97.1874 39.0045 97.2622 38.9058 97.3119 38.7938C97.3617 38.6819 97.385 38.5598 97.3801 38.4372C97.3825 38.3254 97.3641 38.2142 97.326 38.1092C97.2871 38.0091 97.2261 37.9193 97.1476 37.8468C97.049 37.7668 96.9347 37.709 96.8123 37.6773C96.6486 37.6318 96.479 37.6115 96.3094 37.6172H95.2278V39.3173H96.304Z" fill="white"/>
<path d="M104.043 34.8346V39.9461H103.15V37.5571H100.722V39.9461H99.8298V34.8346H100.722V36.8737H103.15V34.8346H104.043Z" fill="white"/>
<path d="M107.877 36.8354C108.176 36.8278 108.474 36.8722 108.758 36.9667C108.971 37.0358 109.166 37.1495 109.332 37.3001C109.473 37.4368 109.581 37.6054 109.645 37.7921C109.706 37.9774 109.737 38.1711 109.737 38.3662C109.741 38.5835 109.7 38.7993 109.618 39.0003C109.539 39.1916 109.416 39.3618 109.261 39.4978C109.094 39.6472 108.896 39.759 108.683 39.8258C108.428 39.9111 108.161 39.9518 107.893 39.9461H105.946V34.8346H106.795V36.8354H107.877ZM107.877 39.2901C108.034 39.2932 108.191 39.2711 108.342 39.2245C108.462 39.1831 108.572 39.1181 108.666 39.0331C108.752 38.9522 108.818 38.8533 108.861 38.7434C108.905 38.6264 108.927 38.5022 108.926 38.3771C108.928 38.2618 108.91 38.147 108.872 38.0382C108.835 37.9295 108.772 37.8318 108.688 37.7539C108.592 37.6686 108.48 37.6035 108.358 37.5625C108.197 37.5153 108.029 37.4932 107.861 37.4969H106.779V39.2901H107.877ZM111.722 34.8346V39.9461H110.862V34.8346H111.722Z" fill="white"/>
<path d="M117.757 39.2299C117.644 39.3662 117.511 39.4842 117.362 39.5798C117.207 39.6791 117.042 39.7616 116.87 39.8258C116.695 39.8898 116.513 39.9374 116.329 39.968C116.151 39.9995 115.97 40.0159 115.789 40.0172C115.459 40.0207 115.132 39.9594 114.826 39.8368C114.532 39.7162 114.269 39.5292 114.058 39.2901C113.836 39.0433 113.667 38.753 113.56 38.4373C113.431 38.0613 113.369 37.6652 113.377 37.2674C113.373 36.9269 113.428 36.5884 113.539 36.2669C113.639 35.969 113.799 35.6954 114.009 35.4633C114.212 35.2267 114.465 35.0398 114.75 34.9166C115.063 34.7812 115.4 34.7142 115.74 34.7198C116.028 34.7189 116.314 34.7708 116.583 34.8729C116.835 34.972 117.062 35.1249 117.249 35.3212C117.444 35.54 117.59 35.7993 117.676 36.0811C117.788 36.3907 117.843 36.7188 117.838 37.0487C117.847 37.1461 117.831 37.2443 117.789 37.333C117.77 37.3589 117.745 37.3792 117.715 37.3917C117.686 37.4042 117.653 37.4084 117.622 37.404H114.242C114.247 37.6894 114.29 37.9727 114.372 38.2459C114.442 38.4662 114.554 38.6705 114.702 38.8473C114.837 39.0042 115.007 39.1261 115.199 39.2026C115.405 39.2859 115.626 39.3268 115.848 39.3229C116.044 39.3257 116.238 39.2999 116.427 39.2463C116.569 39.1999 116.708 39.1433 116.843 39.0769L117.135 38.9074C117.195 38.8537 117.271 38.8211 117.351 38.8145C117.385 38.814 117.418 38.8217 117.448 38.837C117.479 38.8522 117.505 38.8745 117.524 38.9019L117.757 39.2299ZM117.038 36.8355C117.036 36.6499 117.007 36.4656 116.951 36.2888C116.896 36.1241 116.81 35.9718 116.697 35.8405C116.579 35.7075 116.433 35.6029 116.27 35.5344C116.099 35.4617 115.915 35.4263 115.729 35.4305C115.544 35.4206 115.359 35.4489 115.185 35.5137C115.011 35.5786 114.852 35.6786 114.718 35.8077C114.452 36.0934 114.288 36.461 114.253 36.8519L117.038 36.8355Z" fill="white"/>
<path d="M125.55 35.0861C125.599 35.0141 125.661 34.9528 125.734 34.9057C125.806 34.8583 125.891 34.8336 125.977 34.8346H126.675L125.361 36.7808C125.292 36.8937 125.208 36.9967 125.112 37.087C125.02 37.1709 124.911 37.2343 124.793 37.2728C124.939 37.3099 125.076 37.3789 125.193 37.4751C125.311 37.5756 125.412 37.6958 125.49 37.8304L126.815 39.9461H126.199C126.071 39.9539 125.944 39.9255 125.831 39.8641C125.739 39.8065 125.661 39.7279 125.604 39.6345L124.62 38.0436C124.55 37.9188 124.447 37.8159 124.323 37.7465C124.199 37.677 124.058 37.6436 123.917 37.65H123.376V39.9516H122.484V34.8346H123.376V37.0214H123.841C123.965 37.0248 124.088 36.9953 124.197 36.9358C124.306 36.8764 124.398 36.789 124.463 36.6824L125.55 35.0861Z" fill="white"/>
<path d="M130.076 34.7526C130.418 34.75 130.758 34.8131 131.077 34.9384C131.365 35.063 131.624 35.2495 131.834 35.4851C132.051 35.7244 132.215 36.0077 132.315 36.3161C132.54 37.0273 132.54 37.7916 132.315 38.5028C132.215 38.8095 132.051 39.091 131.834 39.3283C131.626 39.5665 131.367 39.7535 131.077 39.875C130.43 40.1228 129.717 40.1228 129.07 39.875C128.779 39.7535 128.518 39.5666 128.308 39.3283C128.095 39.0882 127.931 38.8076 127.827 38.5028C127.602 37.7916 127.602 37.0273 127.827 36.3161C127.931 36.0097 128.095 35.7273 128.308 35.4851C128.52 35.2489 128.78 35.0623 129.07 34.9384C129.391 34.8124 129.732 34.7493 130.076 34.7526ZM130.076 39.3174C130.289 39.3327 130.503 39.2948 130.698 39.2071C130.893 39.1194 131.064 38.9846 131.196 38.8144C131.437 38.3813 131.564 37.8927 131.564 37.3958C131.564 36.8988 131.437 36.4102 131.196 35.9771C131.065 35.8053 130.895 35.6686 130.699 35.579C130.504 35.4894 130.29 35.4497 130.076 35.4633C129.85 35.4581 129.624 35.5028 129.417 35.5945C129.231 35.6808 129.069 35.8123 128.946 35.9771C128.814 36.159 128.719 36.3651 128.665 36.5839C128.602 36.8507 128.571 37.1242 128.573 37.3985C128.543 37.8988 128.674 38.3953 128.946 38.8144C129.08 38.9851 129.252 39.1201 129.449 39.2078C129.646 39.2955 129.862 39.3331 130.076 39.3174Z" fill="white"/>
<path d="M139.746 34.8182V39.9461H138.94V36.5512V36.2341C138.95 36.1257 138.966 36.018 138.988 35.9116L137.231 39.0222C137.207 39.0703 137.172 39.1117 137.128 39.1425C137.084 39.1742 137.031 39.1914 136.977 39.1917H136.874C136.82 39.1914 136.767 39.1742 136.723 39.1425C136.677 39.112 136.64 39.0707 136.614 39.0222L134.83 35.9007C134.83 35.9991 134.862 36.1084 134.873 36.2287C134.88 36.3361 134.88 36.4438 134.873 36.5512V39.9461H134.116V34.8182H134.83C134.894 34.8191 134.956 34.8341 135.014 34.862C135.081 34.8969 135.136 34.9524 135.171 35.0205L136.75 37.6883C136.825 37.8414 136.89 38.0054 136.955 38.1749C137.005 38.0062 137.072 37.8432 137.155 37.6883L138.702 35.0205C138.733 34.9518 138.787 34.8959 138.853 34.862C138.911 34.8345 138.974 34.8196 139.037 34.8182H139.746Z" fill="white"/>
<path d="M147.284 34.8182V39.9461H146.484V36.5512V36.2341C146.494 36.1257 146.51 36.018 146.533 35.9116L144.775 39.0222C144.749 39.0707 144.712 39.112 144.667 39.1425C144.625 39.1748 144.574 39.1921 144.521 39.1917H144.418C144.364 39.1921 144.311 39.1748 144.267 39.1425C144.221 39.112 144.184 39.0707 144.158 39.0222L142.374 35.9007C142.374 35.9991 142.406 36.1084 142.417 36.2287C142.428 36.3489 142.417 36.4583 142.417 36.5512V39.9461H141.611V34.8182H142.325C142.389 34.8191 142.452 34.8341 142.509 34.862C142.576 34.8969 142.631 34.9524 142.666 35.0205L144.245 37.6883C144.321 37.8462 144.388 38.0087 144.445 38.1749C144.5 38.008 144.567 37.8454 144.645 37.6883L146.197 35.0205C146.228 34.9518 146.282 34.8959 146.349 34.862C146.406 34.8345 146.469 34.8196 146.533 34.8182H147.284Z" fill="white"/>
<path d="M153.584 34.8346L150.761 41.4549C150.738 41.5169 150.701 41.5729 150.653 41.6189C150.592 41.6623 150.517 41.6835 150.442 41.6791H149.783L150.707 39.6509L148.62 34.8346H149.388C149.454 34.8311 149.52 34.8525 149.572 34.8947C149.613 34.9273 149.645 34.9708 149.664 35.0205L150.989 38.2678C151.042 38.4125 151.088 38.5603 151.124 38.7106C151.172 38.552 151.221 38.4044 151.275 38.2623L152.589 35.0478C152.607 34.9933 152.644 34.9469 152.692 34.9166C152.738 34.88 152.796 34.8607 152.854 34.8619L153.584 34.8346Z" fill="white"/>
<path d="M159.052 34.8346V39.9461H158.159V37.5571H155.748V39.9461H154.855V34.8346H155.748V36.8737H158.176V34.8346H159.052Z" fill="white"/>
<path d="M165.298 34.8346V39.9461H164.4V36.4746C164.395 36.4018 164.395 36.3288 164.4 36.256V36.0264L164.314 36.2122L164.216 36.3708L161.777 39.7274C161.757 39.7903 161.73 39.8508 161.696 39.9078C161.648 39.9537 161.584 39.9791 161.518 39.9789H160.977V34.8401H161.869V38.3115C161.875 38.3806 161.875 38.4501 161.869 38.5192V38.7488C161.869 38.6887 161.929 38.6286 161.956 38.5739L162.048 38.4154L164.487 35.0642C164.528 35.0062 164.575 34.9531 164.627 34.9057C164.678 34.8604 164.743 34.8351 164.811 34.8346H165.298Z" fill="white"/>
<path d="M170.279 35.0861C170.326 35.0128 170.389 34.9512 170.463 34.9057C170.535 34.8583 170.62 34.8336 170.706 34.8346H171.398L170.089 36.7808C170.019 36.894 169.933 36.9969 169.835 37.087C169.744 37.1721 169.635 37.2355 169.516 37.2728C169.665 37.3088 169.803 37.3779 169.922 37.4751C170.039 37.5772 170.139 37.6971 170.219 37.8304L171.544 39.9461H170.928C170.798 39.9538 170.669 39.9254 170.554 39.8641C170.463 39.8077 170.386 39.7287 170.333 39.6345L169.349 38.0436C169.279 37.9188 169.176 37.8159 169.052 37.7465C168.928 37.677 168.787 37.6436 168.645 37.65H168.105V39.9516H167.212V34.8346H168.105V37.0214H168.586C168.71 37.0243 168.832 36.9945 168.941 36.9351C169.05 36.8757 169.142 36.7886 169.208 36.6824L170.279 35.0861Z" fill="white"/>
<path d="M172.745 35.5343C173.002 35.2704 173.31 35.0621 173.649 34.9221C173.988 34.7821 174.352 34.7132 174.719 34.7198C174.978 34.7157 175.235 34.7641 175.476 34.8619C175.682 34.9518 175.867 35.0862 176.016 35.2555C176.172 35.4324 176.289 35.6412 176.357 35.8678C176.435 36.1227 176.473 36.3883 176.471 36.655V39.9351H176.076C176.006 39.9406 175.937 39.9254 175.876 39.8914C175.821 39.8495 175.783 39.7895 175.768 39.7219L175.665 39.2409C175.543 39.3597 175.413 39.4694 175.276 39.5689C175.154 39.6661 175.021 39.7487 174.881 39.8149C174.737 39.8812 174.587 39.9307 174.432 39.9625C174.254 40.0026 174.073 40.0209 173.891 40.0171C173.708 40.017 173.526 39.9894 173.35 39.9351C173.185 39.8836 173.032 39.798 172.901 39.6837C172.768 39.569 172.663 39.425 172.593 39.2627C172.516 39.0722 172.479 38.8673 172.485 38.6614C172.486 38.4552 172.542 38.253 172.647 38.0764C172.781 37.8653 172.968 37.6937 173.188 37.5789C173.49 37.4144 173.815 37.2947 174.151 37.2236C174.629 37.1204 175.116 37.0672 175.605 37.0651V36.666C175.631 36.3442 175.54 36.0241 175.351 35.764C175.259 35.6594 175.144 35.5776 175.016 35.5245C174.887 35.4715 174.749 35.4487 174.61 35.4578C174.426 35.4526 174.243 35.4823 174.07 35.5453C173.935 35.5918 173.806 35.6542 173.686 35.7312L173.404 35.917C173.337 35.9681 173.256 35.9967 173.172 35.999C173.117 36.0002 173.064 35.9829 173.02 35.9498C172.976 35.9187 172.938 35.8798 172.907 35.835L172.745 35.5343ZM175.611 37.6227C175.261 37.6335 174.913 37.6663 174.567 37.7211C174.325 37.7599 174.089 37.8297 173.864 37.9288C173.709 37.9897 173.572 38.0916 173.469 38.224C173.388 38.3347 173.345 38.4689 173.345 38.6067C173.342 38.7266 173.364 38.8459 173.41 38.9566C173.45 39.0494 173.511 39.1317 173.588 39.1971C173.668 39.2587 173.757 39.305 173.853 39.3338C173.961 39.3628 174.072 39.3775 174.183 39.3775C174.327 39.3786 174.47 39.3621 174.61 39.3283C174.738 39.2958 174.861 39.248 174.978 39.1862C175.094 39.1242 175.204 39.0529 175.308 38.973C175.416 38.8837 175.517 38.7868 175.611 38.6832V37.6227Z" fill="white"/>
<path d="M183.474 39.2682V41.4549C183.476 41.4921 183.47 41.5292 183.457 41.5639C183.444 41.5987 183.424 41.6305 183.398 41.6572C183.374 41.6813 183.345 41.7001 183.314 41.7124C183.282 41.7246 183.248 41.73 183.214 41.7283H182.673V39.9461H178.347V34.8346H179.239V39.2682H181.668V34.8346H182.56V39.2682H183.474Z" fill="white"/>
<path d="M189.206 34.8346V39.9461H188.319V36.4746V36.256V36.0264L188.233 36.2122L188.135 36.3708L185.697 39.7274C185.656 39.7837 185.608 39.8351 185.556 39.8805C185.508 39.9263 185.444 39.9518 185.377 39.9515H184.837V34.8401H185.729V38.3115C185.734 38.3806 185.734 38.4501 185.729 38.5192V38.7488L185.815 38.5739L185.907 38.4154L188.352 35.0642C188.389 35.005 188.435 34.9516 188.487 34.9057C188.539 34.8596 188.607 34.8343 188.676 34.8346H189.206Z" fill="white"/>
<path d="M195.452 34.8346V39.9461H194.565V36.4746C194.56 36.4018 194.56 36.3288 194.565 36.256V36.0264C194.565 36.092 194.506 36.1576 194.479 36.2122L194.382 36.3708L191.98 39.7274C191.94 39.7837 191.892 39.8351 191.84 39.8805C191.792 39.9263 191.728 39.9518 191.661 39.9515H191.121V34.8401H192.013V38.3115C192.018 38.3806 192.018 38.4501 192.013 38.5192V38.7488L192.099 38.5739L192.191 38.4154L194.63 35.0642C194.671 35.0062 194.718 34.9531 194.771 34.9057C194.822 34.8604 194.887 34.8351 194.955 34.8346H195.452Z" fill="white"/>
</g>
<defs>
<clipPath id="clip0_2_1349">
<rect width="199" height="51" fill="white"/>
</clipPath>
</defs>
</svg>
