<svg width="50" height="40" viewBox="0 0 50 40" fill="none" xmlns="http://www.w3.org/2000/svg">
<mask id="path-1-inside-1_2_1334" fill="white">
<path fill-rule="evenodd" clip-rule="evenodd" d="M49.0333 13.5167C41.8536 1.08105 25.9523 -3.1797 13.5167 4C1.08105 11.1797 -3.1797 27.0811 4 39.5167L49.0333 13.5167Z"/>
</mask>
<path d="M49.0333 13.5167L50.0333 15.2487L51.7654 14.2487L50.7654 12.5167L49.0333 13.5167ZM4 39.5167L2.26795 40.5167L3.26795 42.2487L5 41.2487L4 39.5167ZM14.5167 5.73205C25.9957 -0.895366 40.6739 3.03764 47.3013 14.5167L50.7654 12.5167C43.0334 -0.875533 25.9089 -5.46404 12.5167 2.26795L14.5167 5.73205ZM5.73205 38.5167C-0.895366 27.0376 3.03764 12.3595 14.5167 5.73205L12.5167 2.26795C-0.875533 9.99994 -5.46404 27.1245 2.26795 40.5167L5.73205 38.5167ZM5 41.2487L50.0333 15.2487L48.0333 11.7846L3 37.7846L5 41.2487Z" fill="white" mask="url(#path-1-inside-1_2_1334)"/>
</svg>
