<svg width="50" height="40" viewBox="0 0 50 40" fill="none" xmlns="http://www.w3.org/2000/svg">
<mask id="path-1-inside-1_2_1337" fill="white">
<path fill-rule="evenodd" clip-rule="evenodd" d="M0.516486 26.5165C7.69619 38.9522 23.5975 43.2129 36.0331 36.0332C48.4688 28.8535 52.7295 12.9522 45.5498 0.516545L0.516486 26.5165Z"/>
</mask>
<path d="M0.516486 26.5165L-0.483514 24.7845L-2.21556 25.7845L-1.21556 27.5165L0.516486 26.5165ZM45.5498 0.516545L47.2819 -0.483456L46.2819 -2.21551L44.5498 -1.21551L45.5498 0.516545ZM35.0331 34.3012C23.5541 40.9286 8.87595 36.9956 2.24854 25.5165L-1.21556 27.5165C6.51642 40.9087 23.641 45.4972 37.0331 37.7653L35.0331 34.3012ZM43.8178 1.51654C50.4452 12.9956 46.5122 27.6737 35.0331 34.3012L37.0331 37.7653C50.4253 30.0333 55.0138 12.9087 47.2819 -0.483456L43.8178 1.51654ZM44.5498 -1.21551L-0.483514 24.7845L1.51649 28.2486L46.5498 2.2486L44.5498 -1.21551Z" fill="white" mask="url(#path-1-inside-1_2_1337)"/>
</svg>
