<svg width="145" height="35" viewBox="0 0 145 35" fill="none" xmlns="http://www.w3.org/2000/svg">
<g opacity="0.7" clip-path="url(#clip0_2_1385)">
<path d="M11.6198 34.504V31.029C11.6198 26.3128 11.0736 23.9798 9.18652 19.9087L0 0.00127136H6.35597L14.1524 17.0292C16.4365 21.994 17.4297 24.5753 17.4297 30.2844V34.5042L11.6198 34.504ZM15.3441 16.6815L22.5941 0.000854492H28.7019L21.3525 16.6817L15.3441 16.6815Z" fill="white"/>
<path d="M133.032 26.0645L128.017 34.5039H122.008L129.854 21.4971L122.306 9.53269H128.961L133.728 17.0788L137.998 9.53269H143.908L136.856 21.6462L145 34.5039H138.346L133.032 26.0645ZM106.415 19.7594H114.658V19.2634C114.658 16.1354 113.764 13.7028 110.835 13.7028C108.004 13.7028 106.564 15.788 106.415 19.7594ZM112.126 35.0004C104.578 35.0004 100.307 30.7807 100.307 22.0928C100.307 14.5469 103.734 9.0362 110.934 9.0362C116.843 9.0362 120.667 12.3128 120.667 21.0006V24.1284H106.415C106.664 28.2985 108.302 30.3338 112.622 30.3338C115.502 30.3338 118.581 29.2417 120.418 28.0006V32.8163C118.681 34.0075 115.9 35.0006 112.126 35.0006M80.7929 22.1925C80.7929 27.8516 82.3822 30.3338 85.6096 30.3338C88.9367 30.3338 90.6252 27.802 90.6252 21.9936C90.6252 16.2348 89.0363 13.7028 85.8577 13.7028C82.4812 13.7028 80.7929 16.2847 80.7929 22.1925ZM74.6852 22.1923C74.6852 13.8518 78.6578 9.0362 84.3682 9.0362C86.9505 9.0362 89.1355 10.2278 90.6252 12.4618V0.000854492H96.5341V34.5048H91.0722L90.7741 31.2782C89.185 33.7107 86.9006 35.0013 84.1199 35.0013C78.5582 35.0013 74.6852 30.4341 74.6852 22.1931M56.8086 34.5048H50.8993V9.53456H56.6595L56.8086 11.6197H57.1064C58.2983 10.4283 60.3837 9.1375 63.9093 9.1375C68.7261 9.1375 70.7123 11.3219 70.7123 16.2863V34.5058H64.8034V16.882C64.8034 14.9957 63.8599 14.1019 61.7741 14.1019C59.6388 14.1019 57.901 15.2437 56.8086 16.5844V34.5048ZM40.1733 22.8384H39.3292C34.264 22.8384 32.2283 23.881 32.2283 26.8099C32.2283 29.0443 33.4695 30.5333 35.9525 30.5333C38.0378 30.5333 39.4284 29.6396 40.1731 28.5476L40.1733 22.8384ZM46.0823 28.3985C46.0823 30.4341 46.1819 32.4697 46.3804 34.5048H40.6201C40.4216 34.0083 40.223 33.1646 40.1731 32.5193H39.9251C38.7828 33.7107 37.2929 34.8525 33.8172 34.8525C29.2486 34.8525 26.17 32.0228 26.17 26.9591C26.17 21.895 30.1922 18.9165 39.2298 18.9165H40.1733V17.5263C40.1733 14.8454 38.8822 13.8527 36.0518 13.8527C33.0225 13.8527 29.5468 15.1435 27.9575 16.3351V11.4202C29.7454 10.3775 32.824 9.13645 36.7469 9.13645C43.0039 9.13645 46.0823 11.42 46.0823 17.4767V28.3985Z" fill="white"/>
</g>
<defs>
<clipPath id="clip0_2_1385">
<rect width="145" height="35" fill="white"/>
</clipPath>
</defs>
</svg>
